<?xml version="1.0" standalone="no"?>
<!DOCTYPE svg PUBLIC "-//W3C//DTD SVG 20010904//EN"
 "http://www.w3.org/TR/2001/REC-SVG-20010904/DTD/svg10.dtd">
<svg version="1.0" xmlns="http://www.w3.org/2000/svg"
 width="512.000000pt" height="512.000000pt" viewBox="0 0 512.000000 512.000000"
 preserveAspectRatio="xMidYMid meet">
<metadata>
Created by potrace 1.14, written by Peter Selinger 2001-2017
</metadata>
<g transform="translate(0.000000,512.000000) scale(0.100000,-0.100000)"
fill="#000000" stroke="none">
<path d="M390 5011 c-94 -20 -191 -98 -233 -188 l-22 -48 0 -2215 0 -2215 28
-57 c32 -64 99 -130 167 -162 l45 -21 2185 0 2185 0 56 28 c66 32 131 98 162
165 l22 47 0 2215 0 2215 -22 47 c-31 67 -96 133 -162 165 l-56 28 -2160 1
c-1188 1 -2176 -1 -2195 -5z m2446 -830 c5 -5 44 -18 86 -29 64 -15 79 -16 91
-5 10 10 84 16 297 23 581 20 820 24 820 12 0 -5 -4 -12 -9 -14 -9 -3 -501
-458 -501 -463 0 -1 21 -33 46 -71 168 -250 252 -568 241 -914 -10 -325 -89
-600 -236 -825 l-59 -90 89 -3 89 -3 0 -34 c0 -34 -46 -100 -139 -197 l-35
-38 87 0 87 0 0 -50 0 -50 -160 0 -160 0 0 41 c0 35 9 50 70 124 39 46 75 87
80 90 27 17 7 27 -44 23 -49 -4 -60 -10 -111 -57 -150 -137 -368 -254 -554
-298 -344 -81 -554 -73 -862 34 l-75 26 -440 -243 c-241 -133 -461 -256 -488
-272 -26 -16 -50 -27 -53 -24 -3 2 144 169 326 370 182 201 331 369 331 375 0
5 -16 23 -35 40 l-36 31 -174 0 c-96 0 -175 2 -175 4 0 5 133 134 173 167 l28
24 -55 105 c-67 129 -110 255 -142 420 -20 105 -24 154 -24 320 0 166 4 215
24 322 61 318 180 553 379 753 56 56 131 122 167 147 127 90 321 173 483 209
32 7 60 16 63 21 7 11 498 10 510 -1z"/>
<path d="M2440 4094 c-249 -29 -439 -98 -620 -225 -253 -178 -435 -482 -496
-829 -26 -144 -26 -482 0 -620 101 -549 485 -935 1008 -1011 115 -17 314 -15
430 5 172 28 360 102 503 195 90 59 223 186 291 278 104 139 194 349 229 533
26 134 32 482 10 623 -19 124 -65 274 -119 392 -152 329 -459 567 -826 640
-74 15 -341 27 -410 19z m268 -215 c83 -12 187 -45 247 -79 318 -177 515 -579
515 -1050 0 -380 -123 -699 -353 -916 -128 -120 -234 -177 -405 -214 -329 -73
-671 79 -874 389 -149 228 -225 550 -198 852 5 67 12 131 15 143 70 317 142
471 294 629 113 117 215 181 358 222 135 39 248 46 401 24z"/>
<path d="M2440 3794 c-76 -12 -165 -42 -245 -83 -108 -55 -227 -168 -291 -277
-77 -130 -145 -330 -160 -466 l-6 -63 108 105 c114 110 456 444 679 663 l130
127 -95 -1 c-52 -1 -106 -3 -120 -5z"/>
<path d="M3062 3193 l-182 -168 108 -3 c59 -2 166 0 238 3 l131 7 -22 83 c-22
80 -67 207 -83 233 -6 8 -63 -39 -190 -155z"/>
<path d="M3049 2577 c-174 -139 -436 -346 -582 -462 l-266 -210 307 -3 c168
-1 310 -6 314 -10 4 -4 -67 -47 -157 -97 -100 -55 -160 -94 -154 -99 13 -14
205 11 275 35 309 108 528 420 583 832 13 90 15 267 4 266 -5 0 -150 -114
-324 -252z"/>
<path d="M1730 2707 c0 -119 21 -256 56 -376 l26 -84 56 55 c31 31 152 144
267 253 116 109 211 201 213 204 2 6 -525 52 -590 51 l-28 0 0 -103z"/>
</g>
</svg>
